<svg xmlns="http://www.w3.org/2000/svg" viewBox="0 0 512 512" width="100" height="100">
  <style>
    .primary { fill: #FF6B00; }
    .secondary { fill: #2C3E50; }
    .road { fill: #95A5A6; }
    .marking { fill: white; }
    .car { fill: #FF6B00; }
    .wheel { fill: #17202A; }
  </style>
  
  <!-- Background -->
  <rect fill="#ECF0F1" x="0" y="0" width="512" height="512"/>
  
  <!-- Road -->
  <rect class="road" x="50" y="226" width="412" height="60"/>
  
  <!-- Road Markings -->
  <rect class="marking" x="80" y="253" width="40" height="6"/>
  <rect class="marking" x="160" y="253" width="40" height="6"/>
  <rect class="marking" x="240" y="253" width="40" height="6"/>
  <rect class="marking" x="320" y="253" width="40" height="6"/>
  <rect class="marking" x="400" y="253" width="40" height="6"/>
  
  <!-- Starting Point Pin -->
  <circle class="secondary" cx="100" cy="150" r="30"/>
  <path class="secondary" d="M100,180l15,30h-30z"/>
  <circle fill="white" cx="100" cy="150" r="15"/>
  <text x="95" y="155" fill="#2C3E50" font-family="Arial" font-size="16">A</text>
  
  <!-- Destination Pin -->
  <circle class="primary" cx="400" cy="150" r="30"/>
  <path class="primary" d="M400,180l15,30h-30z"/>
  <circle fill="white" cx="400" cy="150" r="15"/>
  <text x="395" y="155" fill="#FF6B00" font-family="Arial" font-size="16">B</text>
  
  <!-- Curved Path (Upward) -->
  <path fill="none" stroke="#FF6B00" stroke-width="4" stroke-dasharray="8,4" d="M100,230c0-80,100-100,150-100h150"/>
  
  <!-- Curved Path (Downward) -->
  <path fill="none" stroke="#2C3E50" stroke-width="4" stroke-dasharray="8,4" d="M400,230c0,80-100,100-150,100h-150"/>
  
  <!-- Car 1 (Going) -->
  <g transform="translate(160, 200) scale(0.5)">
    <rect class="car" x="0" y="0" width="80" height="30" rx="5" ry="5"/>
    <rect class="car" x="20" y="-20" width="40" height="20" rx="5" ry="5"/>
    <rect fill="#D6EAF8" x="25" y="-15" width="30" height="15" rx="3" ry="3"/>
    <circle class="wheel" cx="20" cy="30" r="10"/>
    <circle class="wheel" cx="60" cy="30" r="10"/>
    <circle fill="white" cx="20" cy="30" r="4"/>
    <circle fill="white" cx="60" cy="30" r="4"/>
    <!-- Arrow indicating direction -->
    <path fill="#FFFFFF" d="M80,15l10,5-10,5V15z"/>
  </g>
  
  <!-- Car 2 (Returning) -->
  <g transform="translate(340, 310) scale(0.5) rotate(180)">
    <rect class="secondary" x="0" y="0" width="80" height="30" rx="5" ry="5"/>
    <rect class="secondary" x="20" y="-20" width="40" height="20" rx="5" ry="5"/>
    <rect fill="#D6EAF8" x="25" y="-15" width="30" height="15" rx="3" ry="3"/>
    <circle class="wheel" cx="20" cy="30" r="10"/>
    <circle class="wheel" cx="60" cy="30" r="10"/>
    <circle fill="white" cx="20" cy="30" r="4"/>
    <circle fill="white" cx="60" cy="30" r="4"/>
    <!-- Arrow indicating direction -->
    <path fill="#FFFFFF" d="M80,15l10,5-10,5V15z"/>
  </g>
  
  <!-- Round Trip Text -->
  <text x="225" y="380" fill="#2C3E50" font-family="Arial" font-weight="bold" font-size="24">ROUND TRIP</text>
</svg>
